<svg width="45" height="45" viewBox="0 0 45 45" fill="none" xmlns="http://www.w3.org/2000/svg">
<g clip-path="url(#clip0_5_61)">
<path d="M24.4949 12.5343L25.8918 11.9606C27.0261 11.5106 28.4924 11.0512 30.223 11.3418C33.7686 11.9381 36.2136 13.8525 37.6705 16.3912C38.233 17.37 37.7793 18.66 36.7293 19.0706C35.8298 19.4225 35.0608 20.0435 34.5276 20.8489C33.9944 21.6543 33.7228 22.6047 33.7501 23.5702C33.7774 24.5357 34.1022 25.4692 34.6801 26.2432C35.2579 27.0172 36.0607 27.5938 36.9786 27.8943C37.9499 28.2131 38.4974 29.2912 38.1786 30.2625C37.3499 32.7787 36.1574 35.1018 34.7455 36.9768C33.3505 38.8293 31.648 40.3668 29.7524 41.1187C28.5149 41.6062 27.1874 41.4243 25.918 41.1093L25.1643 40.9087L24.0449 40.5843C23.5368 40.4362 23.0136 40.3087 22.4999 40.3087C21.9843 40.3087 21.463 40.4362 20.9549 40.5843L19.8355 40.9087L19.0818 41.1093C17.8124 41.4243 16.483 41.6081 15.2474 41.1187C12.8605 40.1737 10.7549 37.9687 9.16302 35.3681C7.43965 32.5042 6.30262 29.3264 5.81802 26.0193C5.3924 23.1056 5.62302 19.8337 6.97115 17.0662C8.35865 14.2143 10.9011 11.9943 14.7768 11.3418C16.3518 11.0775 17.7055 11.4318 18.7893 11.8387L19.4099 12.0825L20.5049 12.5343C21.2549 12.8287 21.8455 13.0012 22.4999 13.0012C23.1524 13.0012 23.7449 12.8287 24.4949 12.5343ZM22.0649 5.18995C23.8949 3.35808 26.7055 3.20058 27.3674 3.86433C28.0311 4.5262 27.8736 7.33683 26.0418 9.16683C24.2118 10.9968 21.4011 11.1543 20.7393 10.4925C20.0755 9.83058 20.233 7.01995 22.0649 5.18995Z" fill="black"/>
</g>
<defs>
<clipPath id="clip0_5_61">
<rect width="45" height="45" fill="white"/>
</clipPath>
</defs>
</svg>
