<svg width="43" height="38" viewBox="0 0 43 38" fill="none" xmlns="http://www.w3.org/2000/svg">
<path d="M0 20.9C0 21.9078 0.41185 22.8744 1.14495 23.587C1.87804 24.2996 2.87233 24.7 3.90909 24.7H16.2618L14.3855 33.383C14.3464 33.573 14.3268 33.782 14.3268 33.991C14.3268 34.77 14.6591 35.492 15.1868 36.005L17.2586 38L30.1195 25.498C30.8427 24.795 31.2727 23.845 31.2727 22.8V3.8C31.2727 2.79218 30.8609 1.82563 30.1278 1.113C29.3947 0.400356 28.4004 0 27.3636 0H9.77273C8.15046 0 6.76273 0.950001 6.17636 2.318L0.273636 15.713C0.0977249 16.15 0 16.606 0 17.1V20.9ZM43 0H35.1818V22.8H43V0Z" fill="black" fill-opacity="0.7"/>
</svg>
