<svg fill="none" height="24" viewBox="0 0 24 24" width="24" xmlns="http://www.w3.org/2000/svg"><path clip-rule="evenodd" d="m9.96798 4.16592c.88562-1.55456 3.17842-1.55456 4.06402 0l7.6721 13.46648c.8608 1.5109-.2596 3.3676-2.032 3.3676h-15.34421c-1.77243 0-2.89279-1.8567-2.03202-3.3676zm3.03192 12.83408c0 .5523-.4477 1-1 1-.5522 0-1-.4477-1-1s.4478-1 1-1c.5523 0 1 .4477 1 1zm-.25-8c0-.41421-.3357-.75-.75-.75-.4142 0-.75.33579-.75.75v5c0 .4142.3358.75.75.75.4143 0 .75-.3358.75-.75z" fill="#28303f" fill-rule="evenodd"/></svg>