<svg width="45" height="45" viewBox="0 0 45 45" fill="none" xmlns="http://www.w3.org/2000/svg">
<g clip-path="url(#clip0_5_65)">
<path d="M15.6762 1.48012C11.18 3.0399 7.30251 6.0004 4.61322 9.92677C1.92393 13.8531 0.564628 18.5384 0.734964 23.2945C0.905299 28.0505 2.5963 32.6265 5.55958 36.3504C8.52286 40.0744 12.6022 42.7499 17.1985 43.984C20.9248 44.9455 24.8288 44.9878 28.5751 44.1071C31.9687 43.3448 35.1063 41.7142 37.6805 39.375C40.3597 36.8661 42.3044 33.6744 43.3055 30.143C44.3933 26.3027 44.5869 22.2643 43.8715 18.3375H22.9465V27.0176H35.0649C34.8227 28.402 34.3037 29.7234 33.5389 30.9025C32.7742 32.0817 31.7794 33.0944 30.6141 33.8801C29.1345 34.8594 27.4663 35.518 25.7168 35.8137C23.9624 36.14 22.1627 36.14 20.4083 35.8137C18.6299 35.4465 16.9476 34.7125 15.4688 33.6586C13.0928 31.9767 11.3087 29.5873 10.3711 26.8313C9.41802 24.0237 9.41802 20.98 10.3711 18.1723C11.0385 16.2043 12.1417 14.4125 13.5985 12.9305C15.2656 11.2035 17.3761 9.96894 19.6986 9.36242C22.0211 8.75591 24.4658 8.80082 26.7645 9.49223C28.5603 10.0432 30.2024 11.0063 31.5598 12.3047C32.9262 10.9454 34.2903 9.58247 35.652 8.21606C36.3551 7.4813 37.1215 6.78169 37.8141 6.02934C35.7418 4.10109 33.3094 2.60057 30.6563 1.61372C25.8248 -0.140614 20.5382 -0.18776 15.6762 1.48012Z" fill="white"/>
<path d="M15.6761 1.48012C20.5377 -0.188894 25.8242 -0.142989 30.6561 1.6102C33.3097 2.60376 35.741 4.1115 37.8104 6.04692C37.1073 6.79927 36.3655 7.50239 35.6483 8.23364C34.2843 9.59536 32.9214 10.9524 31.5597 12.3047C30.2023 11.0063 28.5601 10.0432 26.7644 9.49223C24.4665 8.79839 22.0218 8.75089 19.6987 9.35492C17.3756 9.95896 15.2637 11.1912 13.5948 12.9165C12.1381 14.3984 11.0348 16.1903 10.3675 18.1583L3.07959 12.5157C5.68821 7.34265 10.2049 3.38568 15.6761 1.48012Z" fill="#E33629"/>
<path d="M1.14589 18.1055C1.53732 16.164 2.18766 14.284 3.07948 12.5156L10.3674 18.1723C9.41425 20.9799 9.41425 24.0236 10.3674 26.8313C7.93925 28.7063 5.50995 30.5906 3.07948 32.4844C0.84759 28.0417 0.166902 22.9799 1.14589 18.1055Z" fill="#F8BD00"/>
<path d="M22.9464 18.334H43.8714C44.5868 22.2607 44.3932 26.2992 43.3054 30.1395C42.3043 33.6708 40.3596 36.8625 37.6804 39.3715C35.3284 37.5363 32.9659 35.7152 30.614 33.8801C31.78 33.0936 32.7753 32.0797 33.5401 30.8993C34.3048 29.7189 34.8234 28.3962 35.0647 27.0105H22.9464C22.9429 24.1207 22.9464 21.2273 22.9464 18.334Z" fill="#587DBD"/>
<path d="M3.07617 32.4844C5.50664 30.6094 7.93594 28.725 10.3641 26.8313C11.3035 29.5882 13.0901 31.9778 15.4688 33.6586C16.9522 34.7076 18.6381 35.4356 20.4188 35.7961C22.1732 36.1225 23.9729 36.1225 25.7273 35.7961C27.4768 35.5004 29.145 34.8418 30.6246 33.8625C32.9766 35.6977 35.3391 37.5188 37.691 39.354C35.1172 41.6944 31.9796 43.3262 28.5855 44.0895C24.8393 44.9702 20.9353 44.928 17.209 43.9665C14.2618 43.1796 11.509 41.7924 9.12305 39.8918C6.59787 37.8866 4.53528 35.3599 3.07617 32.4844Z" fill="#319F43"/>
</g>
<defs>
<clipPath id="clip0_5_65">
<rect width="45" height="45" fill="white"/>
</clipPath>
</defs>
</svg>
