<svg width="66" height="67" viewBox="0 0 66 67" fill="none" xmlns="http://www.w3.org/2000/svg">
<path d="M0.996826 29.9444C0.996826 16.5364 0.996826 9.83067 5.16394 5.66711C9.32749 1.5 16.0333 1.5 29.4413 1.5H36.5524C49.9604 1.5 56.6662 1.5 60.8297 5.66711C64.9968 9.83067 64.9968 16.5364 64.9968 29.9444V37.0556C64.9968 50.4636 64.9968 57.1693 60.8297 61.3329C56.6662 65.5 49.9604 65.5 36.5524 65.5H29.4413C16.0333 65.5 9.32749 65.5 5.16394 61.3329C0.996826 57.1693 0.996826 50.4636 0.996826 37.0556V29.9444Z" stroke="#388B68" stroke-width="2"/>
<path d="M48.9969 22.8332C51.9424 22.8332 54.3302 20.4454 54.3302 17.4998C54.3302 14.5543 51.9424 12.1665 48.9969 12.1665C46.0514 12.1665 43.6636 14.5543 43.6636 17.4998C43.6636 20.4454 46.0514 22.8332 48.9969 22.8332Z" fill="#388B68"/>
<path d="M32.9967 44.1668C38.8878 44.1668 43.6634 39.3912 43.6634 33.5002C43.6634 27.6091 38.8878 22.8335 32.9967 22.8335C27.1057 22.8335 22.3301 27.6091 22.3301 33.5002C22.3301 39.3912 27.1057 44.1668 32.9967 44.1668Z" stroke="#388B68" stroke-width="2"/>
</svg>
