<svg width="41" height="37" viewBox="0 0 41 37" fill="none" xmlns="http://www.w3.org/2000/svg">
<path d="M41 16.65C41 15.6687 40.6073 14.7276 39.9083 14.0337C39.2093 13.3398 38.2613 12.95 37.2727 12.95H25.4945L27.2836 4.4955C27.3209 4.3105 27.3395 4.107 27.3395 3.9035C27.3395 3.145 27.0227 2.442 26.5195 1.9425L24.5441 0L12.2814 12.173C11.5918 12.8575 11.1818 13.7825 11.1818 14.8V33.3C11.1818 34.2813 11.5745 35.2224 12.2735 35.9163C12.9725 36.6102 13.9206 37 14.9091 37H31.6818C33.2286 37 34.5518 36.075 35.1109 34.743L40.7391 21.7005C40.9068 21.275 41 20.831 41 20.35V16.65ZM0 37H7.45455V14.8H0V37Z" fill="black" fill-opacity="0.7"/>
</svg>
