<svg width="63" height="57" viewBox="0 0 63 57" fill="none" xmlns="http://www.w3.org/2000/svg">
<path d="M5.27755 3.74262C5.87789 3.67331 6.48589 3.76832 7.03582 4.01738C7.58575 4.26644 8.05669 4.66008 8.39775 5.15576C13.2919 12.2676 19.1676 15.2256 25.6898 15.8976C26.0081 13.1273 26.7608 10.39 28.1767 7.97874C30.2524 4.44095 33.6279 1.83867 38.4492 0.876812C45.114 -0.453976 50.1872 1.94408 53.1284 4.87906L59.0703 3.77556C59.6921 3.65982 60.3343 3.72319 60.921 3.95821C61.5077 4.19322 62.0145 4.59006 62.3815 5.10189C62.7486 5.61373 62.9606 6.21919 62.9926 6.84684C63.0246 7.47449 62.8751 8.09812 62.5619 8.64414L56.8587 18.5987C57.3793 32.964 53.3605 42.991 44.7923 49.8986C40.2497 53.5615 33.744 55.6401 26.605 56.2824C19.4096 56.928 11.2759 56.1473 3.19189 53.802C2.50118 53.6018 1.89474 53.1839 1.4641 52.6113C1.03345 52.0387 0.801976 51.3425 0.804596 50.6277C0.807217 49.913 1.04379 49.2185 1.47862 48.649C1.91345 48.0795 2.52294 47.666 3.2151 47.4709C7.28032 46.3213 10.3773 45.3297 13.1726 43.5938C9.19687 41.4988 6.26899 38.7582 4.19659 35.6354C1.31845 31.2939 0.250749 26.4517 0.0385352 22.0871C-0.173678 17.7225 0.459646 13.6774 1.12944 10.7622C1.51077 9.09871 1.95509 7.43193 2.56852 5.83762C2.7849 5.27563 3.15209 4.78324 3.63026 4.41391C4.10842 4.04459 4.67596 3.81242 5.27755 3.74262Z" fill="#388B68"/>
</svg>
